<svg height="640pt" preserveAspectRatio="xMidYMid meet" viewBox="0 0 640 640" width="640pt" xmlns="http://www.w3.org/2000/svg"><g transform="matrix(.1 0 0 -.1 0 640)"><path d="m2286 6146c-20-18-37-42-37-52-3-38 2-89 10-94 9-7 58-126 66-165 4-16 9-39 12-50 17-74-19-285-50-285-6 0-8-3-4-6 3-4-5-21-18-38-41-54-93-177-108-256-15-84-13-239 5-290 3-8 11-35 17-60 27-103 87-214 128-237 67-39 162 9 177 89 3 17-6 49-25 88-61 128-84 251-68 350 12 68 31 113 92 214 130 218 134 460 11 713-40 84-75 113-132 113-32 0-48-7-76-34z"/><path d="m3000 6172c-57-25-86-74-75-128 3-18 19-58 35-90 40-81 59-171 56-263-5-112-17-148-82-248-19-28-34-56-34-62s-4-11-10-11c-5 0-10-8-10-18s-4-22-8-27c-9-11-31-82-40-130-8-43-8-202 1-253 10-67 63-214 94-265 64-107 189-103 226 6 14 43 14 46-14 103-65 134-90 274-68 376 9 40 43 116 72 163 91 147 111 215 111 375 0 137-3 160-41 269-39 113-80 182-119 199-27 13-70 15-94 4z"/><path d="m3659 6163c-34-20-59-63-59-98 0-15 16-63 36-107 81-179 79-353-4-482-46-71-90-155-98-185-2-9-10-43-19-76-14-60-15-235-1-300 14-61 56-174 82-221 36-66 58-85 105-91 108-15 166 81 114 187-49 100-68 172-71 270-2 80 2 105 22 159 14 36 36 80 50 98 29 38 91 167 98 204 2 13 9 43 14 66 41 176-53 530-153 577-42 20-83 20-116-1z"/><path d="m102 4198c-26-12-55-37-70-61l-27-41v-610c0-547 4-689 20-791 15-92 16-94 40-210 9-44 18-88 20-98s9-32 14-50c6-18 29-90 52-162 22-71 45-139 49-150 56-137 167-366 182-376 5-3 9-9 9-13-1-3 6-19 16-34 30-48 147-226 159-242 244-307 545-572 859-757 96-56 272-142 375-182 47-19 94-37 105-42 48-19 173-58 240-75 58-14 252-55 271-56 13-1 24-5 24-8s21-6 48-7c26-1 76-5 112-9 133-17 557-9 655 11 11 3 42 7 68 10 27 2 52 7 55 9 4 2 25 7 47 10 22 4 76 15 120 26s89 22 99 25c10 2 35 10 55 17s39 13 44 14c4 1 8 2 10 4 1 1 10 3 19 5 19 3 141 48 198 72 19 9 51 22 70 30 215 92 525 289 720 459 61 53 259 251 303 302 109 128 209 272 309 447 67 118 187 366 192 397 1 7 4 18 8 23 3 6 20 55 38 110 34 109 43 122 80 128 14 2 32 7 40 10 8 4 40 15 71 27 48 17 172 86 204 112 5 5 21 18 35 29 71 58 160 152 160 168 0 6 6 14 13 18 35 23 124 205 153 317 25 93 29 130 29 266-1 108-15 204-41 280-1 3-5 15-9 28s-23 54-41 92c-125 261-381 469-644 525-14 2-45 9-70 14-28 6-1060 10-2745 10h-2700zm5484-367c103-27 189-76 264-152 82-83 81-82 118-160 48-101 62-170 58-284-6-160-59-287-171-400-109-111-220-165-372-179-48-4-105-34-132-68-20-25-65-160-86-258-6-30-94-247-129-320-45-95-114-220-132-241-8-8-14-19-14-23s-11-22-25-40-25-38-25-45-4-10-9-6c-6 3-10 214-10 516 0 492-1 512-20 543-50 81-165 81-218-1-16-24-18-77-18-705v-678l-55-53c-67-63-142-127-149-127-3 0-6 261-5 581 1 646 3 623-67 661-41 22-68 23-114 4-60-25-72-59-74-204-1-70-2-134-2-142 1-8 1-33 1-55s0-47 0-55-1-37-1-65c-1-27 0-57 0-65 1-8 1-33 1-55s0-47 0-55 0-33-1-55c0-22 0-47 0-55 0-12 0-90 0-155 0-5 0-64 0-130s1-129 1-140c-1-11-1-47-1-80s-1-64-1-70c0-5 1-14 2-20 6-23-1-41-19-50-11-6-53-29-94-53-41-23-79-42-85-42s-10 181-10 538c0 324-4 547-10 562-37 95-175 105-227 17-19-31-20-57-20-635v-602l-50-17c-27-9-51-16-52-15-2 1-18-5-37-13-20-8-43-15-53-15-17 0-18 36-17 727 1 505-2 736-10 753-45 103-196 99-236-6-4-11-8-359-8-773s-2-755-5-757c-7-7-46-14-117-20-36-3-69-7-75-8-6 0-10 323-10 889-1 1003 3 945-75 980-76 34-163-8-178-86-4-19-7-429-6-912l1-878-101 6c-55 3-102 8-105 10-2 3-5 445-5 983-1 917-2 980-19 1005-54 82-169 82-214-1-21-37-21-48-21-985 0-522-3-951-6-954-6-6-125 19-167 36l-27 10v1078c0 717-4 1087-10 1105-6 14-27 38-47 53-30 23-42 27-81 22-52-5-100-44-112-89-4-16-7-489-6-1053 0-564-1-1025-3-1025s-50 23-108 51l-105 52v728c0 660-2 732-17 763-16 35-72 72-103 69-67-6-111-36-126-84-6-22-10-268-10-671 1-421-2-634-9-630-5 3-30 22-55 41-24 20-53 43-63 51-11 8-32 27-48 42l-29 26v416 416l-40 40c-43 43-80 51-136 30-23-9-71-53-75-70-1-3-3-129-4-280-2-151-3-277-4-279-2-8-96 119-166 224-132 199-209 356-282 573-25 74-47 145-49 158s-13 61-24 107c-19 79-24 108-36 207-3 25-8 61-10 80-3 19-7 254-8 523l-4 487h2572c2464 0 2574-1 2642-19z"/><path d="m5419 3647c-7-7-4-777 3-778 4-1 14-2 21-3 22-3 87 14 135 36 57 25 155 122 178 175 37 86 49 190 30 273-32 136-161 264-291 287-39 6-75 11-76 10z"/></g></svg>