<svg height="700pt" preserveAspectRatio="xMidYMid meet" viewBox="0 0 700 700" width="700pt" xmlns="http://www.w3.org/2000/svg"><g transform="matrix(.1 0 0 -.1 0 700)"><path d="m2527 6813c-1-1-61-3-132-4-72-1-140-6-152-10-13-5-25-4-28 2-4 5-12 6-18 2-7-4-19-8-27-10-111-15-171-27-176-34-3-5-9-7-14-4-10 6-100-14-115-26-6-4-22-10-36-12-32-6-150-53-204-80-22-12-43-20-47-19-5 1-8-3-8-9 0-5-4-8-8-5-5 3-18-3-29-14-12-10-24-16-27-13-3 4-6 1-6-5 0-7-7-12-15-12s-15-4-15-10c0-5-7-10-15-10s-15-5-15-11c0-5-4-8-9-4-6 3-14-3-20-12-6-10-11-15-11-10 0 4-8-1-18-10-28-27-62-53-67-53-3 0-13-8-23-17-10-10-34-32-53-49-52-48-112-114-146-164-44-65-96-170-100-203-1-16-7-37-13-47-12-22-9-1802 4-1840 4-14 8-31 8-37 1-7 4-13 8-13s7-6 7-12c1-23 8-42 21-56 7-8 9-18 6-24-4-7-2-8 4-4 7 4 12 2 12-4 0-7 13-24 30-40 16-15 26-31 22-35-4-5-2-5 4-2 6 4 20-1 30-9 10-9 13-12 5-8-9 4-12 3-7-4 4-6 13-9 21-5 8 3 15 1 15-4s10-9 22-10c11-1 25-8 29-15 5-7 9-9 9-4s6 3 13-3c8-6 17-8 20-5 3 4 14 3 24-1s43-9 73-10c30-2 55-4 55-5 0-6 47-5 51 1 2 5 16 4 30-1 17-7 23-7 19 0-3 6-2 10 4 10 5 0 12-4 15-8 6-10 42-9 52 0 3 4 17 3 31-3 16-6 22-6 18 1-3 6-2 10 4 10 5 0 12-4 15-8 6-10 42-9 52 0 3 4 17 3 31-3 16-6 22-6 18 1-3 6-2 10 4 10 5 0 12-4 15-8 6-10 42-9 52 1s26 9 20-1 30-9 40 1c4 4 14 1 22-6 13-9 14-9 8 1-4 6-3 12 3 12 5 0 12-4 15-8 6-10 42-9 52 0 3 4 17 3 31-3 16-6 22-6 18 1-3 6-2 10 4 10 5 0 12-4 15-8 6-10 42-9 52 0 3 4 17 3 31-3 16-6 22-6 18 1-3 6-2 10 4 10 5 0 12-4 15-8 6-10 42-9 52 0 3 4 17 3 31-3 16-6 22-6 18 1-3 6-2 10 4 10 5 0 12-4 15-8 6-10 42-9 52 0 3 4 17 3 31-3 16-6 22-6 18 1-3 6-2 10 4 10 5 0 12-4 15-8 4-7 40-8 56-2 13 6 58 5 82-2 15-3 30-3 33 2s16 5 31 0c17-7 23-7 19 0-7 11 8 14 19 3 9-10 46-11 52-2 2 5 16 4 30-1 17-7 23-7 19 0-3 6-2 10 4 10 5 0 12-4 15-8 6-10 42-9 52 0 3 4 17 3 31-3 16-6 22-6 18 1-3 6-2 10 4 10 5 0 12-4 15-8 6-10 42-9 52 0 3 4 17 3 31-3 16-6 22-6 18 1-3 6-2 10 4 10 5 0 12-4 15-8 6-10 42-9 52 0 3 4 17 3 31-3 16-6 22-6 18 1-3 6-2 10 4 10 5 0 12-4 15-8 6-10 42-9 52 0 3 4 17 3 31-3 16-6 22-6 18 1-3 6-2 10 4 10 5 0 12-4 15-8 6-10 42-9 52 0 3 4 17 3 31-3 16-6 22-6 18 1-3 6-2 10 4 10 5 0 12-4 15-8 6-10 42-9 52 0 3 4 17 3 31-3 16-6 22-6 18 1-3 6-2 10 4 10 5 0 12-4 15-8 6-10 42-9 52 0 3 4 17 3 31-3 16-6 22-6 18 1-3 6-2 10 4 10 5 0 12-4 15-8 6-10 42-9 52 0 3 4 17 3 31-3 16-6 22-6 18 1-3 6-2 10 4 10 5 0 12-4 15-8 6-10 42-9 52 1 4 4 14 1 22-6 9-6 13-7 10-2-7 11 652 13 670 1 6-3 13-2 17 3 4 7 15 7 31 1 17-7 23-7 19 0-3 6-2 10 4 10 5 0 12-4 15-8 6-10 42-9 52 0 3 4 17 3 31-3 16-6 22-6 18 1-7 11 8 14 19 3 9-10 46-11 52-2 2 5 16 4 30-1 17-7 23-7 19 0-3 6-2 10 4 10 5 0 12-4 15-8 6-10 42-9 52 0 3 4 17 3 31-3 16-6 22-6 18 1-3 6-2 10 4 10 5 0 12-4 15-8 6-10 42-9 52 0 3 4 17 3 31-3 16-6 22-6 18 1-3 6-2 10 4 10 5 0 12-4 15-8 6-10 42-9 52 0 3 4 17 3 31-3 16-6 22-6 18 1-3 6-2 10 4 10 5 0 12-4 15-8 6-10 42-9 52 0 3 4 17 3 31-3 16-6 22-6 18 1-3 6-2 10 4 10 5 0 12-4 15-8 4-7 39-8 56-2 13 5 92 0 102-6 6-4 8-3 5 3-6 10 97 8 113-2 5-3 11-1 15 5 3 5 11 10 16 10 6 0 7-6 3-12-6-10-5-10 7-2 8 7 29 11 47 9 17-1 32 1 32 6 0 4 9 6 20 4s20 1 20 6c0 6 5 7 10 4 6-4 24 0 40 9 17 8 27 10 24 4-4-6 7-3 25 8 17 10 31 23 31 28s3 6 6 3c10-9 87 73 106 113 25 53 45 123 42 144-1 11 2 28 7 38 7 13 6 18-3 18-8 0-9 3-3 8 11 7 15 1723 4 1717-3-2-5 6-4 18s-2 30-7 41c-7 13-7 16 2 11 6-4 2 10-9 31-11 20-18 40-16 44 3 4-2 13-10 20s-15 19-15 27c0 20-87 153-100 153-5 0-10 5-10 11 0 24-151 159-254 228-28 19-63 42-78 52-108 74-372 178-518 205-14 2-36 7-48 10-13 2-43 7-65 10-69 9-86 12-97 19-5 3-10 2-10-4 0-7-8-7-22-2-13 4-81 9-153 10-168 3-2076 7-2078 4zm-95-618c5-6 8-5 8 2 0 18 2101 18 2112 0 6-9 8-9 8 1 0 7 5 10 11 7 6-4 43-8 82-10 102-4 190-15 205-27 8-7 12-7 12 1 0 7 4 9 10 6 5-3 18-8 27-10 10-2 43-11 73-20 30-8 60-17 65-18 26-7 135-63 135-69 0-5 5-8 11-8 5 0 29-15 52-32 51-41 110-98 100-98-4 0 2-7 13-15 10-8 15-15 9-15s-6-3 1-8c15-10 45-74 31-65-7 4-7 0 1-10 8-9 11-21 7-27-3-5-2-10 2-10 5 0 8-282 8-627-1-667 0-653-48-695-19-17-27-19-67-23-8 0-21-4-28-9-8-5-18-4-25 3s-14 7-24 0c-9-9-13-8-13 0 0 7-5 9-10 6-19-12-69-14-76-4-4 6-11 6-20-2-11-9-14-9-14 0 0 7-5 9-10 6-19-12-69-14-76-4-4 6-11 6-20-2-11-9-14-9-14 0 0 7-5 9-10 6-19-12-69-14-76-4-4 6-11 6-20-2-11-9-14-9-14 0 0 7-5 9-10 6-19-12-69-14-76-4-4 6-11 6-20-2-11-9-14-9-14 0 0 7-5 9-10 6-19-12-69-14-76-4-4 6-11 6-20-2-11-9-14-9-14 0 0 7-5 9-10 6-19-12-69-14-76-4-4 6-11 6-20-2-11-9-14-9-14 0 0 7-5 9-10 6-19-12-69-14-76-4-4 6-11 6-20-2-11-9-14-9-14 0 0 7-5 9-10 6-19-12-69-14-76-4-4 6-11 6-20-2-11-9-14-9-14 0 0 7-5 9-10 6-19-12-69-14-76-4-4 6-11 6-20-2-11-9-14-9-14 0 0 7-5 9-10 6-19-12-69-14-76-4-4 6-11 6-20-2-11-9-14-9-14 0 0 7-5 9-10 6-19-12-69-14-76-4-4 6-11 6-20-2-11-9-14-9-14 0 0 7-5 9-10 6-19-12-69-14-76-4-4 6-11 6-20-2-11-9-14-9-14 0 0 7-5 9-10 6-19-12-69-14-76-4-4 6-11 6-20-2-11-9-14-9-14 0 0 7-5 9-10 6-19-12-69-14-76-4-4 6-11 6-20-2-11-9-14-9-14 0 0 7-5 9-10 6-19-12-69-14-76-4-4 6-11 6-20-2-11-9-14-9-14 0 0 7-5 9-10 6-19-12-69-14-76-4-4 6-11 6-20-2-11-9-14-9-14 0 0 7-5 9-10 6-19-12-69-14-76-4-4 6-11 6-20-2-11-9-14-9-14 0 0 7-5 9-10 6-19-12-69-14-76-4-4 6-11 6-20-2-11-9-14-9-14 0 0 7-5 9-10 6-19-12-69-14-76-4-4 6-11 6-20-2-11-9-14-9-14 0 0 7-5 9-10 6-19-12-69-14-76-4-4 6-11 6-20-2-11-9-14-9-14 0 0 7-5 9-10 6-19-12-69-14-76-4-4 6-11 6-20-2-11-9-14-9-14 0 0 8-5 9-17 2-11-6-24-6-36 1-12 6-23 6-32-2-10-8-14-8-18 2s-8 10-15-1c-8-12-14-12-25-3-7 7-16 9-19 6-11-11-57-14-63-4-4 6-11 8-16 4-19-11-58-14-64-4-4 6-11 8-16 4-19-11-58-14-64-4-4 6-11 8-16 4-19-11-58-14-64-4-4 6-11 8-16 4-19-11-58-14-64-4-4 6-11 8-16 4-19-11-58-14-64-4-4 6-11 8-16 4-19-11-58-14-64-4-4 6-11 8-16 4-19-11-58-14-64-4-4 6-11 8-16 4-19-11-58-14-64-4-4 6-11 8-16 4-19-11-58-14-64-4-5 8-11 7-21-1-9-7-14-8-14-1 0 6-10 9-23 6-25-4-93 46-80 59 3 4 1 7-6 7s-11 8-10 18c1 9 0 19-1 22-6 13-4 1240 2 1240 4 0 5 7 2 15-4 8-1 21 5 29 6 7 8 16 4 19-3 4-1 7 5 7 7 0 11 3 11 8-4 21 2 42 10 38 5-3 12 1 15 10 4 10 2 13-7 8-21-13 96 99 135 129 20 15 41 27 46 27 6 0 12 4 14 8 10 24 217 100 238 87 5-3 10-1 10 6s3 10 6 7 27 0 55 7c28 8 49 9 49 4 0-6 8-5 19 1 11 5 58 11 105 13 47 1 86 5 86 10 0 10 23 4 32-8z"/><path d="m1805 3402c-6-6-24-11-57-14-9-1-14-6-11-12 4-5-1-7-10-3-9 3-19 1-23-5-5-7-2-8 7-3 8 5 1-5-16-21-16-16-33-28-38-26-4 2-7 0-6-5 4-20-2-44-9-39-9 5-11-9-18-109-8-109-4-174 13-230 17-59 95-123 155-127 18-2 36-7 40-13 5-7 14-6 27 2 10 6 22 9 26 5 11-11 175-8 175 3 0 7 3 7 8 0 6-9 42-12 67-5 6 1 15 1 20 0 27-7 187-5 191 2 3 5 11 5 17 1 16-10 2188-10 2194 0 2 4 10 4 16 0 17-10 67-11 73-1 3 5 11 5 17 1 17-11 57-11 63-1 3 4 11 5 17 1 19-12 107-12 100 0-4 6-1 7 7 2 19-12 79-15 85-4 3 4 16 5 28 0 27-9 133-8 143 2 4 4 13 2 21-4 10-9 17-8 30 2 14 12 16 12 8 0-6-11-5-12 6-5 8 5 21 9 29 9 30 1 110 47 130 75 20 27 53 120 44 120-3 0 0 10 7 21 9 17 8 20-2 14-8-6-10-4-4 5 11 18 12 90 1 90-5 0-3 7 4 15 9 11 10 18 1 28-6 8-8 16-5 20 3 3 0 15-6 27-8 15-8 20-1 16 7-5 9-1 5 8-3 9-11 16-16 16s-8 6-5 13c2 6-3 18-12 25-13 11-13 12-1 6 8-4-3 10-25 31-22 20-41 36-41 34-1-2-12 5-25 16-12 11-19 14-14 6 6-10 4-12-6-5-8 4-21 10-29 13-23 6-3388 9-3395 3z"/><path d="m3470 2396c-19-15-60-72-60-84 0-5-7-15-15-22s-12-16-9-21 1-9-4-9-12-8-15-17c-8-24-40-77-50-81-4-2-5-8-1-13 3-5 2-9-3-9-4 0-15-15-23-32-7-18-22-42-32-52-9-10-15-22-13-26 3-4-2-13-10-20s-12-16-9-21 1-9-4-9-17-15-26-32c-9-18-32-60-52-93-19-33-42-75-51-92-9-18-21-33-25-33-5 0-6-4-3-10 3-5 2-10-4-10-5 0-13-10-17-22-4-13-18-40-31-60-13-21-20-38-16-38 5 0 0-5-9-11-10-5-18-17-18-24 0-8-5-15-11-15-5 0-7-4-4-10 3-5 1-10-5-10s-8-4-5-10c3-5 1-10-5-10s-8-4-5-10c3-5 1-10-6-10s-9-3-6-7c4-3-1-12-11-20-11-10-12-12-2-8s9 2-2-8c-10-8-18-21-18-29s-9-24-20-36c-12-12-17-22-13-22s-2-7-13-16c-10-8-12-13-4-9 12 5 12 4-1-7-17-14-19-19-19-44 0-8-4-13-9-10s-12-1-15-10c-4-10-2-13 7-8 6 4 5-1-4-12-9-10-14-25-11-33 3-9 0-11-8-6-9 5-11 4-6-4 4-6 3-26-3-44-15-45-23-95-25-144 0-22-4-39-8-36-5 2-8-1-8-6 0-6 4-11 10-11 11 0 9-28-3-47-5-7-4-13 1-13s9-13 10-28c0-16 7-53 15-83s13-62 11-72c-1-10 2-14 9-10 6 4 8 0 4-10-3-10-2-17 4-17s7-5 4-10c-3-6-2-10 3-10 6 0 13-7 16-16 3-8 2-12-4-9-6 4-5-5 1-19 7-14 15-23 19-21 5 3 11-2 14-11 4-10 2-13-7-8-6 4 1-5 16-19 17-16 25-32 21-40-4-6-4-9 1-5 9 8 42-31 37-45-1-4 3-7 9-7s25-15 43-33c53-57 134-115 212-152 40-19 80-35 88-35s22-3 31-6c13-6 14-9 3-16-9-6-6-7 10-3 13 4 30 1 39-7 14-11 16-11 8 1-6 11-5 12 6 5 8-5 23-9 34-9s25-3 30-6c21-11 203 1 251 16 111 37 290 133 321 174 7 9 13 12 13 8 0-16 92 85 127 141 45 70 82 151 85 185 1 15 6 27 10 27s7 3 7 8c-1 4-1 9 0 12 19 49 17 350-1 350-5 0-8 9-8 21 0 40-62 170-171 355-60 103-109 189-109 190 0 2-22 40-50 85-27 45-46 87-43 92 3 6 1 7-5 3-7-4-12-3-12 1 0 5-15 35-34 66-19 30-31 58-28 61s0 6-6 6c-11 0-28 38-24 53 1 5-1 6-6 3-9-5-37 42-34 57 1 4-3 7-8 7s-10 6-10 14c0 7-7 19-15 26-9 7-14 19-11 27s2 12-2 9c-5-3-21 17-35 44-15 28-24 50-21 50s-4 9-17 21c-13 11-17 18-9 14 10-4 9-2-2 8-10 8-18 19-18 24 0 16-37 54-57 57-10 2-25-1-33-8z"/></g></svg>