<svg xmlns="http://www.w3.org/2000/svg" viewBox="0 0 92.98 84.25">
  <g>
    <path fill="none" stroke-dasharray="18" stroke-dashoffset="54" stroke-linecap="round" stroke-miterlimit="10" stroke-width="3" d="M37.25 21.58c-.09-.15-2.6-4.45-.21-8.06 3.07-3.95.34-8.48.21-8.69M45.69 21.58c-.09-.15-2.6-4.45-.21-8.06 3.07-3.95.34-8.48.21-8.69M54.14 21.58c-.09-.15-2.6-4.45-.21-8.06 3.07-3.95.34-8.48.21-8.69"/>
  </g>
  <path d="M75.28 34.93v9.76a4.88 4.88 0 0 0 0-9.76Z"/>
  <path d="M75.67 27.78H10.05a2.29 2.29 0 0 0-2.3 2.29v11.87c0 1.29.08 2.58.19 3.8a36.22 36.22 0 0 0 2.16 8.89c0 .07 0 .15.06.21a38.2 38.2 0 0 0 2.71 5.61c.53.89 1.08 1.69 1.58 2.41A27.55 27.55 0 0 0 17.93 67c.55.57 1.1 1.08 1.67 1.6s1.2 1 1.82 1.55a37.7 37.7 0 0 0 3.93 2.67 30.19 30.19 0 0 0 3.18 1.67c.88.42 1.79.8 2.72 1.14s2.1.7 3.18 1c.83.2 1.65.39 2.5.55a27.28 27.28 0 0 0 3.19.47c.87.09 1.74.13 2.62.15h.64c.74 0 1.92 0 2.64-.08s1.66-.15 2.52-.26c1.06-.15 2.14-.34 3.18-.59s1.75-.45 2.6-.72c1.1-.34 2.16-.74 3.21-1.17a25.6 25.6 0 0 0 2.59-1.24 36.75 36.75 0 0 0 3.21-1.87c.89-.59 1.76-1.24 2.6-1.9.32-.25.62-.51.93-.78.77-.66 1.53-1.34 2.25-2.06A34.51 34.51 0 0 0 74.59 60a35.19 35.19 0 0 0 3.55-8.33 12.08 12.08 0 0 0-2.47-23.85Zm.63 19.49A2.3 2.3 0 0 0 74 49a30 30 0 0 1-3.43 8.59c-.45.79-1 1.57-1.48 2.33V47.39a1.59 1.59 0 1 0-3.18 0v16.4c-.65.66-1.35 1.31-2.05 1.91l-.55.46V51.94a1.61 1.61 0 0 0-3.21 0v16.49c-.83.53-1.7 1-2.59 1.48V56.66a1.61 1.61 0 0 0-3.21 0v14.62a27.18 27.18 0 0 1-2.6.83v-17.9a1.59 1.59 0 1 0-3.18 0v18.58a23.31 23.31 0 0 1-2.6.31V51.18a1.6 1.6 0 0 0-3.2 0v22a25.42 25.42 0 0 1-2.58-.18V49A1.6 1.6 0 0 0 37 49v23.47a23.48 23.48 0 0 1-2.5-.64V45.19a1.59 1.59 0 1 0-3.18 0v25.48c-.35-.15-.71-.3-1.05-.47l-1-.5c-.34-.17-.46-.24-.69-.38V51.5a1.59 1.59 0 1 0-3.18 0v15.8l-.12-.08c-.58-.46-1.15-.91-1.7-1.37-.25-.2-.5-.41-.72-.62v-9.84a1.61 1.61 0 0 0-3.21 0v6.48a32.81 32.81 0 0 1-3.05-4.32 30.36 30.36 0 0 1-4-12.18v-.13a31.66 31.66 0 0 1-.17-3.3v-9.55h63.24a7.46 7.46 0 0 1 .63 14.88Z"/>
</svg>
