<svg>
  <defs>
    <clipPath id="logo-bars-clip">
      <path d="M75.67 27.78H10.05a2.29 2.29 0 0 0-2.3 2.29v11.87c0 1.29.08 2.58.19 3.8a36.22 36.22 0 0 0 2.16 8.89c0 .07 0 .15.06.21a38.2 38.2 0 0 0 2.71 5.61c.53.89 1.08 1.69 1.58 2.41A27.55 27.55 0 0 0 17.93 67c.55.57 1.1 1.08 1.67 1.6s1.2 1 1.82 1.55a37.7 37.7 0 0 0 3.93 2.67 30.19 30.19 0 0 0 3.18 1.67c.88.42 1.79.8 2.72 1.14s2.1.7 3.18 1c.83.2 1.65.39 2.5.55a27.28 27.28 0 0 0 3.19.47c.87.09 1.74.13 2.62.15h.64c.74 0 1.92 0 2.64-.08s1.66-.15 2.52-.26c1.06-.15 2.14-.34 3.18-.59s1.75-.45 2.6-.72c1.1-.34 2.16-.74 3.21-1.17a25.6 25.6 0 0 0 2.59-1.24 36.75 36.75 0 0 0 3.21-1.87c.89-.59 1.76-1.24 2.6-1.9.32-.25.62-.51.93-.78.77-.66 1.53-1.34 2.25-2.06A34.51 34.51 0 0 0 74.59 60a35.19 35.19 0 0 0 3.55-8.33 12.08 12.08 0 0 0-2.47-23.85Z"/>
    </clipPath>
  </defs>
</svg>
