<svg xmlns="http://www.w3.org/2000/svg" viewBox="0 0 92.98 84.25" fill="currentColor">
  <path fill="none" stroke-linecap="round" stroke-miterlimit="10" stroke-width="3" d="M37.25 21.58c-.09-.15-2.6-4.45-.21-8.06 3.07-3.95.34-8.48.21-8.69"/>
  <path fill="none" stroke-linecap="round" stroke-miterlimit="10" stroke-width="3" d="M45.69 21.58c-.09-.15-2.6-4.45-.21-8.06 3.07-3.95.34-8.48.21-8.69"/>
  <path fill="none" stroke-linecap="round" stroke-miterlimit="10" stroke-width="3" d="M54.14 21.58c-.09-.15-2.6-4.45-.21-8.06 3.07-3.95.34-8.48.21-8.69"/>
  <path d="M75.28 34.93v9.76a4.88 4.88 0 0 0 0-9.76Z"/>
  <path d="M75.67 27.78H10.05a2.29 2.29 0 0 0-2.3 2.29v11.87c0 1.29.08 2.58.19 3.8a36.22 36.22 0 0 0 2.16 8.89c0 .07 0 .15.06.21a38.2 38.2 0 0 0 2.71 5.61c.53.89 1.08 1.69 1.58 2.41A27.55 27.55 0 0 0 17.93 67c.55.57 1.1 1.08 1.67 1.6s1.2 1 1.82 1.55a37.7 37.7 0 0 0 3.93 2.67 30.19 30.19 0 0 0 3.18 1.67c.88.42 1.79.8 2.72 1.14s2.1.7 3.18 1c.83.2 1.65.39 2.5.55a27.28 27.28 0 0 0 3.19.47c.87.09 1.74.13 2.62.15h.64c.74 0 1.92 0 2.64-.08s1.66-.15 2.52-.26c1.06-.15 2.14-.34 3.18-.59s1.75-.45 2.6-.72c1.1-.34 2.16-.74 3.21-1.17a25.6 25.6 0 0 0 2.59-1.24 36.75 36.75 0 0 0 3.21-1.87c.89-.59 1.76-1.24 2.6-1.9.32-.25.62-.51.93-.78.77-.66 1.53-1.34 2.25-2.06A34.51 34.51 0 0 0 74.59 60a35.19 35.19 0 0 0 3.55-8.33 12.08 12.08 0 0 0-2.47-23.85Zm1.5 19.36-1.67.35a1.78 1.78 0 0 0-1.33 1.26l-.46 1.65a30.65 30.65 0 0 1-3.11 7.27 29.19 29.19 0 0 1-4.72 6.2c-.56.57-1.21 1.16-2 1.86-.22.2-.45.4-.76.64-.78.62-1.55 1.18-2.25 1.65A32.79 32.79 0 0 1 58 69.69a21.22 21.22 0 0 1-2.2 1c-1 .42-1.91.75-2.8 1s-1.6.48-2.29.63a26.81 26.81 0 0 1-2.71.58c-.77.1-1.52.17-2.27.24-.52 0-1.54.06-2.28.06h-.55c-.91 0-1.59-.06-2.3-.13a20.49 20.49 0 0 1-2.63-.39h-.16c-.62-.11-1.26-.25-2.13-.47-1.12-.31-2-.6-2.78-.88s-1.59-.62-2.39-1a30.4 30.4 0 0 1-2.73-1.43 33.74 33.74 0 0 1-3.42-2.33c-.55-.45-1.09-.9-1.61-1.37s-.94-.86-1.44-1.37l-.31-.27a24.19 24.19 0 0 1-2.82-3.28l-.07-.11c-.45-.66-.92-1.33-1.34-2.05A32.17 32.17 0 0 1 15 54.65L14.4 53a32 32 0 0 1-1.88-7.68c-.11-1.21-.17-2.34-.17-3.37v-7.8a1.78 1.78 0 0 1 1.78-1.77h61.54a7.37 7.37 0 0 1 7.27 7.44 7.45 7.45 0 0 1-5.77 7.32Z"/>
  <g class="bars" clip-path="url(#logo-bars-clip)">
    <path stroke-dasharray="33" stroke-dashoffset="66" stroke-linecap="round" stroke-miterlimit="10" stroke-width="3.2" d="M21.22 45.19v32.05"/>
    <path stroke-dasharray="33" stroke-dashoffset="66" stroke-linecap="round" stroke-miterlimit="10" stroke-width="3.2" d="M27 45.19v32.05"/>
    <path stroke-dasharray="33" stroke-dashoffset="66" stroke-linecap="round" stroke-miterlimit="10" stroke-width="3.2" d="M32.86 45.19v32.05"/>
    <path stroke-dasharray="33" stroke-dashoffset="66" stroke-linecap="round" stroke-miterlimit="10" stroke-width="3.2" d="M38.55 45.19v32.05"/>
    <path stroke-dasharray="33" stroke-dashoffset="66" stroke-linecap="round" stroke-miterlimit="10" stroke-width="3.2" d="M44.35 45.19v32.05"/>
    <path stroke-dasharray="33" stroke-dashoffset="66" stroke-linecap="round" stroke-miterlimit="10" stroke-width="3.2" d="M50.15 45.19v32.05"/>
    <path stroke-dasharray="33" stroke-dashoffset="66" stroke-linecap="round" stroke-miterlimit="10" stroke-width="3.2" d="M55.94 45.19v32.05"/>
    <path stroke-dasharray="33" stroke-dashoffset="66" stroke-linecap="round" stroke-miterlimit="10" stroke-width="3.2" d="M61.75 45.19v32.05"/>
    <path stroke-dasharray="33" stroke-dashoffset="66" stroke-linecap="round" stroke-miterlimit="10" stroke-width="3.2" d="M67.54 45.19v32.05"/>
  </g>
</svg>
